HIERARCHY
ROOT Root
{
  OFFSET 0.0 0.0 0.0
  CHANNELS 6 Xposition Yposition Zposition Zrotation Yrotation Xrotation
  JOINT Hips
  {
    OFFSET 0.0 100.0 0.0
    CHANNELS 6 Xposition Yposition Zposition Zrotation Yrotation Xrotation
    JOINT Spine1
    {
      OFFSET -0.013727 5.003763 -0.053727
      CHANNELS 3 Zrotation Yrotation Xrotation
      JOINT Spine2
      {
        OFFSET -0.0 7.125301 -0.029825
        CHANNELS 3 Zrotation Yrotation Xrotation
        JOINT Chest
        {
          OFFSET -1e-06 7.550063 -0.815971
          CHANNELS 3 Zrotation Yrotation Xrotation
          JOINT Neck1
          {
            OFFSET -0.181677 26.311295 -0.553348
            CHANNELS 3 Zrotation Yrotation Xrotation
            JOINT Neck2
            {
              OFFSET -3e-06 7.709397 2.302585
              CHANNELS 3 Zrotation Yrotation Xrotation
              JOINT Head
              {
                OFFSET -5e-06 6.128916 1.953709
                CHANNELS 3 Zrotation Yrotation Xrotation
                JOINT HeadEnd
                {
                  OFFSET 0.003598 16.065403 -1.835379
                  CHANNELS 3 Zrotation Yrotation Xrotation
                }
                JOINT Jaw
                {
                  OFFSET 0.002637 0.475592 3.094941
                  CHANNELS 3 Zrotation Yrotation Xrotation
                }
                JOINT LeftEye
                {
                  OFFSET 3.206381 5.380205 7.586883
                  CHANNELS 3 Zrotation Yrotation Xrotation
                }
                JOINT RightEye
                {
                  OFFSET -3.22244 5.361869 7.558234
                  CHANNELS 3 Zrotation Yrotation Xrotation
                }
              }
            }
          }
          JOINT LeftShoulder
          {
            OFFSET 1.621652 23.237164 5.113413
            CHANNELS 3 Zrotation Yrotation Xrotation
            JOINT LeftArm
            {
              OFFSET 14.919846 2e-06 -5.502326
              CHANNELS 3 Zrotation Yrotation Xrotation
              JOINT LeftForeArm
              {
                OFFSET 28.739307 0.0 -0.002588
                CHANNELS 3 Zrotation Yrotation Xrotation
                JOINT LeftHand
                {
                  OFFSET 27.093981 -1e-06 0.002609
                  CHANNELS 3 Zrotation Yrotation Xrotation
                  JOINT LeftHandThumb1
                  {
                    OFFSET 2.276482 -1.392045 3.191413
                    CHANNELS 3 Zrotation Yrotation Xrotation
                    JOINT LeftHandThumb2
                    {
                      OFFSET 4.012836 -1.828127 1.641654
                      CHANNELS 3 Zrotation Yrotation Xrotation
                      JOINT LeftHandThumb3
                      {
                        OFFSET 2.798515 0.0 -3e-06
                        CHANNELS 3 Zrotation Yrotation Xrotation
                        JOINT LeftHandThumbEnd
                        {
                          OFFSET 3.180793 -4e-06 4e-06
                          CHANNELS 3 Zrotation Yrotation Xrotation
                        }
                      }
                    }
                  }
                  JOINT LeftHandIndex1
                  {
                    OFFSET 3.247555 -0.531998 2.296169
                    CHANNELS 3 Zrotation Yrotation Xrotation
                    JOINT LeftHandIndex2
                    {
                      OFFSET 6.364578 0.01206 0.1786
                      CHANNELS 3 Zrotation Yrotation Xrotation
                      JOINT LeftHandIndex3
                      {
                        OFFSET 3.662364 0.0 0.0
                        CHANNELS 3 Zrotation Yrotation Xrotation
                        JOINT LeftHandIndex4
                        {
                          OFFSET 2.329242 4e-06 4e-06
                          CHANNELS 3 Zrotation Yrotation Xrotation
                          JOINT LeftHandIndexEnd
                          {
                            OFFSET 2.759615 -0.180537 -0.113024
                            CHANNELS 3 Zrotation Yrotation Xrotation
                          }
                        }
                      }
                    }
                  }
                  JOINT LeftHandMiddle1
                  {
                    OFFSET 3.163495 0.240981 1.000332
                    CHANNELS 3 Zrotation Yrotation Xrotation
                    JOINT LeftHandMiddle2
                    {
                      OFFSET 6.19078 -0.259278 -1.002548
                      CHANNELS 3 Zrotation Yrotation Xrotation
                      JOINT LeftHandMiddle3
                      {
                        OFFSET 4.35652 -4e-06 -1e-06
                        CHANNELS 3 Zrotation Yrotation Xrotation
                        JOINT LeftHandMiddle4
                        {
                          OFFSET 2.996877 -8e-06 0.0
                          CHANNELS 3 Zrotation Yrotation Xrotation
                          JOINT LeftHandMiddleEnd
                          {
                            OFFSET 2.304287 -0.294569 -0.031741
                            CHANNELS 3 Zrotation Yrotation Xrotation
                          }
                        }
                      }
                    }
                  }
                  JOINT LeftHandRing1
                  {
                    OFFSET 2.882643 -0.053652 -0.322543
                    CHANNELS 3 Zrotation Yrotation Xrotation
                    JOINT LeftHandRing2
                    {
                      OFFSET 5.854541 -0.486202 -1.373841
                      CHANNELS 3 Zrotation Yrotation Xrotation
                      JOINT LeftHandRing3
                      {
                        OFFSET 4.350578 0.0 3e-06
                        CHANNELS 3 Zrotation Yrotation Xrotation
                        JOINT LeftHandRing4
                        {
                          OFFSET 2.651321 7e-06 2e-06
                          CHANNELS 3 Zrotation Yrotation Xrotation
                          JOINT LeftHandRingEnd
                          {
                            OFFSET 1.936105 0.077687 -7.1e-05
                            CHANNELS 3 Zrotation Yrotation Xrotation
                          }
                        }
                      }
                    }
                  }
                  JOINT LeftHandPinky1
                  {
                    OFFSET 2.8655 -0.310005 -1.600378
                    CHANNELS 3 Zrotation Yrotation Xrotation
                    JOINT LeftHandPinky2
                    {
                      OFFSET 5.087849 -1.331141 -1.77123
                      CHANNELS 3 Zrotation Yrotation Xrotation
                      JOINT LeftHandPinky3
                      {
                        OFFSET 3.070974 4e-06 0.0
                        CHANNELS 3 Zrotation Yrotation Xrotation
                        JOINT LeftHandPinky4
                        {
                          OFFSET 1.549672 0.0 1e-06
                          CHANNELS 3 Zrotation Yrotation Xrotation
                          JOINT LeftHandPinkyEnd
                          {
                            OFFSET 1.944893 -0.157802 0.057219
                            CHANNELS 3 Zrotation Yrotation Xrotation
                          }
                        }
                      }
                    }
                  }
                }
              }
            }
          }
          JOINT RightShoulder
          {
            OFFSET -1.380118 23.180309 5.214158
            CHANNELS 3 Zrotation Yrotation Xrotation
            JOINT RightArm
            {
              OFFSET -15.037196 1.2e-05 -5.545604
              CHANNELS 3 Zrotation Yrotation Xrotation
              JOINT RightForeArm
              {
                OFFSET -28.736639 2e-06 -0.002597
                CHANNELS 3 Zrotation Yrotation Xrotation
                JOINT RightHand
                {
                  OFFSET -27.133619 -0.0 0.002613
                  CHANNELS 3 Zrotation Yrotation Xrotation
                  JOINT RightHandThumb1
                  {
                    OFFSET -2.274032 -1.383988 3.163127
                    CHANNELS 3 Zrotation Yrotation Xrotation
                    JOINT RightHandThumb2
                    {
                      OFFSET -4.011429 -1.827466 1.640914
                      CHANNELS 3 Zrotation Yrotation Xrotation
                      JOINT RightHandThumb3
                      {
                        OFFSET -2.794935 -4e-06 -3e-06
                        CHANNELS 3 Zrotation Yrotation Xrotation
                        JOINT RightHandThumbEnd
                        {
                          OFFSET -3.183852 4e-06 1e-06
                          CHANNELS 3 Zrotation Yrotation Xrotation
                        }
                      }
                    }
                  }
                  JOINT RightHandIndex1
                  {
                    OFFSET -3.253266 -0.520057 2.282866
                    CHANNELS 3 Zrotation Yrotation Xrotation
                    JOINT RightHandIndex2
                    {
                      OFFSET -6.341917 0.012471 0.178266
                      CHANNELS 3 Zrotation Yrotation Xrotation
                      JOINT RightHandIndex3
                      {
                        OFFSET -3.654871 -8e-06 -0.0
                        CHANNELS 3 Zrotation Yrotation Xrotation
                        JOINT RightHandIndex4
                        {
                          OFFSET -2.327586 0.0 1e-06
                          CHANNELS 3 Zrotation Yrotation Xrotation
                          JOINT RightHandIndexEnd
                          {
                            OFFSET -2.76179 -0.180656 -0.113078
                            CHANNELS 3 Zrotation Yrotation Xrotation
                          }
                        }
                      }
                    }
                  }
                  JOINT RightHandMiddle1
                  {
                    OFFSET -3.168106 0.246593 1.00103
                    CHANNELS 3 Zrotation Yrotation Xrotation
                    JOINT RightHandMiddle2
                    {
                      OFFSET -6.180828 -0.258836 -1.000895
                      CHANNELS 3 Zrotation Yrotation Xrotation
                      JOINT RightHandMiddle3
                      {
                        OFFSET -4.348901 0.0 -0.0
                        CHANNELS 3 Zrotation Yrotation Xrotation
                        JOINT RightHandMiddle4
                        {
                          OFFSET -3.00024 -4e-06 -2e-06
                          CHANNELS 3 Zrotation Yrotation Xrotation
                          JOINT RightHandMiddleEnd
                          {
                            OFFSET -2.30252 -0.29437 -0.031706
                            CHANNELS 3 Zrotation Yrotation Xrotation
                          }
                        }
                      }
                    }
                  }
                  JOINT RightHandRing1
                  {
                    OFFSET -2.88569 -0.067952 -0.308858
                    CHANNELS 3 Zrotation Yrotation Xrotation
                    JOINT RightHandRing2
                    {
                      OFFSET -5.854198 -0.48613 -1.373731
                      CHANNELS 3 Zrotation Yrotation Xrotation
                      JOINT RightHandRing3
                      {
                        OFFSET -4.33881 -4e-06 -0.0
                        CHANNELS 3 Zrotation Yrotation Xrotation
                        JOINT RightHandRing4
                        {
                          OFFSET -2.654903 -4e-06 4e-06
                          CHANNELS 3 Zrotation Yrotation Xrotation
                          JOINT RightHandRingEnd
                          {
                            OFFSET -1.933568 0.077527 -5.2e-05
                            CHANNELS 3 Zrotation Yrotation Xrotation
                          }
                        }
                      }
                    }
                  }
                  JOINT RightHandPinky1
                  {
                    OFFSET -2.866425 -0.342796 -1.584145
                    CHANNELS 3 Zrotation Yrotation Xrotation
                    JOINT RightHandPinky2
                    {
                      OFFSET -5.091371 -1.332055 -1.772385
                      CHANNELS 3 Zrotation Yrotation Xrotation
                      JOINT RightHandPinky3
                      {
                        OFFSET -3.062664 -4e-06 1e-06
                        CHANNELS 3 Zrotation Yrotation Xrotation
                        JOINT RightHandPinky4
                        {
                          OFFSET -1.546529 4e-06 -2e-06
                          CHANNELS 3 Zrotation Yrotation Xrotation
                          JOINT RightHandPinkyEnd
                          {
                            OFFSET -1.945119 -0.157718 0.057211
                            CHANNELS 3 Zrotation Yrotation Xrotation
                          }
                        }
                      }
                    }
                  }
                }
              }
            }
          }
        }
      }
    }
    JOINT LeftLeg
    {
      OFFSET 10.043214 -8.434526 2.595655
      CHANNELS 3 Zrotation Yrotation Xrotation
      JOINT LeftShin
      {
        OFFSET -1e-06 -43.221752 -0.802913
        CHANNELS 3 Zrotation Yrotation Xrotation
        JOINT LeftFoot
        {
          OFFSET 1e-06 -42.155094 -3.481523
          CHANNELS 3 Zrotation Yrotation Xrotation
          JOINT LeftToeBase
          {
            OFFSET 0.0 -5.059472 13.231529
            CHANNELS 3 Zrotation Yrotation Xrotation
            JOINT LeftToeEnd
            {
              OFFSET -0.009607 -1.647619 6.513017
              CHANNELS 3 Zrotation Yrotation Xrotation
            }
          }
        }
      }
    }
    JOINT RightLeg
    {
      OFFSET -10.047278 -8.29526 2.620317
      CHANNELS 3 Zrotation Yrotation Xrotation
      JOINT RightShin
      {
        OFFSET 1e-06 -43.362206 -0.805556
        CHANNELS 3 Zrotation Yrotation Xrotation
        JOINT RightFoot
        {
          OFFSET 2e-06 -42.117393 -3.478398
          CHANNELS 3 Zrotation Yrotation Xrotation
          JOINT RightToeBase
          {
            OFFSET -0.0 -5.079609 13.284196
            CHANNELS 3 Zrotation Yrotation Xrotation
            JOINT RightToeEnd
            {
              OFFSET 0.009532 -1.634378 6.460591
              CHANNELS 3 Zrotation Yrotation Xrotation
            }
          }
        }
      }
    }
  }
}
MOTION
Frames: 4
Frame Time: 0.03333333333333333
0.0 0.0 0.0 0.0 -0.0 0.0 15.134514 89.078842 5.725236 -1.231096 -9.969197 15.216146 -0.001554 -0.055452 16.135847 -0.625245 1.236631 0.426779 -0.898858 -1.59958 8.186016 6.428847 1.045502 -3.083716 -1.506721 -0.219319 -3.534377 -4.556077 -0.022266 1.650712 7.7e-05 -2.3e-05 6e-06 0.053789 -0.055864 -0.079634 0.853284 -3.845309 -10.757536 -0.759401 3.736289 -10.730717 40.468269 -24.486017 -14.289787 -0.211986 -41.527191 -81.141823 0.540072 -28.072941 0.248668 -1.27314 -7.165411 -65.318901 -5.882105 9.861284 0.702592 -10.936869 -0.360574 7.156207 0.0 8.774824 0.0 -16.014002 19.117102 6.7105 -1.844032 2.498504 -2.507278 -10.163597 4.678945 4.621109 -20.976019 -3e-06 3e-06 -21.226286 2.451697 -3.593999 1e-06 -5e-06 0.0 -1.362681 2.240798 -0.746324 -21.334909 0.58491 3.008323 -13.821213 -1e-06 2e-06 -23.887171 -0.249077 -0.839483 -61.171143 2.933997 -1.682787 -0.294025 1.679688 0.833257 -14.218208 0.093216 1.300581 -34.212048 -0.287562 0.967171 -20.033211 0.964537 1.212844 -0.0 1e-06 0.0 -3.440389 0.788233 0.501655 -15.928185 -3.167307 2.999708 -6.338825 -2e-06 1e-06 -18.123444 3.648182 -4.905669 -4e-06 -0.0 -1e-06 -50.018742 32.481922 -25.981186 -10.046023 46.945747 -78.106468 -0.251617 28.012697 -0.068487 -22.684898 -13.260522 -46.547905 2.243541 -5.255038 -3.18016 14.282896 -0.826597 6.952512 -1e-06 -12.690609 1e-06 15.944051 -17.674122 2.617097 1.665666 -1.955922 -2.878301 4.727801 -4.170589 4.993929 11.020529 1e-06 1e-06 12.109055 -3.735718 -2.866784 -0.0 0.0 0.0 1.291986 -1.92855 -1.49809 14.800132 0.567467 3.865614 14.242575 -1.341738 -6.66066 19.631971 0.143923 -0.648243 49.910194 -0.565167 -6.206925 0.353029 -1.511151 -0.03194 20.222795 3.684309 2.316637 18.787277 0.0 3e-06 10.751633 -0.479872 1.397909 1e-06 -0.0 -1e-06 3.273808 0.305947 -0.58011 21.48682 11.830376 2.26614 8.16293 -0.0 2e-06 18.399088 -3.798993 -4.940573 3e-06 -0.0 -1e-06 6.513093 21.374704 -56.006321 -0.466874 -0.547344 40.784103 -11.411691 -9.017808 3.379628 1.644477 -1.809542 -0.039576 0.0 0.0 2e-06 -9.185568 -18.942213 -42.671837 0.302911 0.449213 50.958344 13.272006 7.093574 -19.078423 -1.429724 0.877548 0.885018 0.0 -0.0 -1e-06 
0.0 0.0 0.0 0.0 -0.0 0.0 15.114819 89.086601 5.824909 -1.286179 -10.027335 15.115103 0.004922 -0.042465 16.11915 -0.626256 1.23947 0.425922 -0.885953 -1.600517 8.224296 6.382757 1.055701 -3.031389 -1.49432 -0.19901 -3.542047 -4.513387 0.014824 1.460379 7.7e-05 -2.3e-05 5e-06 0.051938 -0.054189 -0.079609 0.851525 -3.839428 -10.748969 -0.761728 3.733891 -10.722552 40.382984 -24.477642 -14.247381 -0.429194 -41.652962 -81.132759 0.54763 -28.228577 0.314867 -1.226457 -7.107357 -65.278305 -5.882108 9.861292 0.702591 -10.936877 -0.360575 7.15621 1e-06 8.774831 -0.0 -16.062262 19.101585 6.70323 -1.844033 2.498506 -2.507279 -10.163607 4.678948 4.621112 -20.976038 -4e-06 3e-06 -21.226299 2.451698 -3.594002 0.0 -5e-06 -0.0 -1.362682 2.2408 -0.746323 -21.334929 0.58491 3.008327 -13.821221 -2e-06 2e-06 -23.887184 -0.249079 -0.839481 -61.197964 2.918511 -1.681391 -0.294025 1.679688 0.833257 -14.218215 0.093214 1.300583 -34.212067 -0.287565 0.967175 -20.033222 0.964538 1.212846 0.0 1e-06 0.0 -3.44039 0.788234 0.501657 -15.928196 -3.167312 2.99971 -6.33883 -1e-06 0.0 -18.123457 3.648184 -4.905673 -3e-06 -0.0 -2e-06 -49.956783 32.442307 -25.911295 -10.013288 47.129948 -78.050728 -0.232669 28.063374 -0.026966 -22.783447 -13.316307 -46.537701 2.243542 -5.25504 -3.18016 14.282896 -0.826594 6.95251 -2e-06 -12.69061 -1e-06 15.946732 -17.639439 2.611246 1.665666 -1.955923 -2.878301 4.7278 -4.170589 4.993928 11.020529 2e-06 -0.0 12.109053 -3.735718 -2.866786 -0.0 0.0 0.0 1.291985 -1.92855 -1.49809 14.800138 0.567469 3.865613 14.242578 -1.341737 -6.660661 19.631973 0.143925 -0.648243 49.924824 -0.55602 -6.195982 0.353029 -1.511153 -0.03194 20.222801 3.684312 2.316636 18.787281 4e-06 3e-06 10.751633 -0.479869 1.397909 -1e-06 -0.0 -1e-06 3.273808 0.305947 -0.580111 21.486824 11.830382 2.266141 8.16293 2e-06 2e-06 18.399088 -3.798987 -4.940575 3e-06 -0.0 -1e-06 6.729478 21.438883 -55.777828 -0.464048 -0.542083 40.899635 -11.531242 -9.134497 3.224605 1.643949 -1.822309 -0.058276 0.0 -0.0 2e-06 -9.200342 -18.876333 -42.486385 0.295928 0.437272 50.910667 13.278036 7.112079 -19.078573 -1.429044 0.878538 0.8338 0.0 -0.0 -1e-06 
0.0 0.0 0.0 0.0 -0.0 0.0 15.112299 89.098068 5.929529 -1.337156 -10.087414 15.017617 0.017169 -0.02981 16.09848 -0.62606 1.245976 0.425997 -0.869323 -1.597913 8.26569 6.327991 1.042717 -3.007796 -1.488994 -0.145217 -3.548335 -4.472048 0.052411 1.297046 7.7e-05 -2.2e-05 5e-06 0.049025 -0.050902 -0.081602 0.848496 -3.832955 -10.748127 -0.764818 3.73412 -10.720467 40.269711 -24.471001 -14.192611 -0.660713 -41.752186 -81.085381 0.523516 -28.423195 0.389698 -1.14013 -7.020646 -65.148773 -5.882108 9.861292 0.702592 -10.936878 -0.360575 7.156213 -1e-06 8.774832 -1e-06 -16.098223 19.05862 6.698101 -1.844033 2.498506 -2.50728 -10.163604 4.678948 4.621113 -20.976034 -2e-06 6e-06 -21.226295 2.4517 -3.593999 0.0 -5e-06 -0.0 -1.362682 2.2408 -0.746325 -21.334925 0.58491 3.008328 -13.82122 -2e-06 4e-06 -23.887182 -0.249076 -0.839479 -61.186386 2.901225 -1.660585 -0.294024 1.679689 0.833257 -14.218217 0.093215 1.300586 -34.212067 -0.28756 0.967178 -20.033222 0.96454 1.212848 -0.0 1e-06 0.0 -3.440391 0.788234 0.501658 -15.928196 -3.167311 2.999712 -6.33883 -2e-06 2e-06 -18.123457 3.648185 -4.90567 -4e-06 -0.0 -2e-06 -49.906002 32.417801 -25.85503 -9.966431 47.285263 -77.950081 -0.170111 28.146334 0.02922 -22.838247 -13.384886 -46.482925 2.243542 -5.255043 -3.180161 14.282902 -0.826596 6.952512 -2e-06 -12.690619 -1e-06 15.946125 -17.620909 2.611977 1.665667 -1.955923 -2.878301 4.727803 -4.170591 4.993929 11.020535 3e-06 0.0 12.10906 -3.73572 -2.866786 -0.0 0.0 0.0 1.291986 -1.928551 -1.498091 14.80014 0.567469 3.865614 14.24258 -1.341739 -6.660663 19.631981 0.143924 -0.648243 49.939095 -0.548663 -6.19347 0.353029 -1.511152 -0.03194 20.222805 3.684314 2.316636 18.787287 3e-06 3e-06 10.751637 -0.47987 1.397909 0.0 -1e-06 -1e-06 3.273809 0.305948 -0.580111 21.486832 11.830388 2.266141 8.162932 2e-06 1e-06 18.399097 -3.79899 -4.940577 3e-06 -0.0 -1e-06 6.850865 21.473204 -55.641281 -0.462538 -0.541592 41.018345 -11.579473 -9.25412 3.166027 1.643191 -1.841534 -0.07092 -0.0 -0.0 2e-06 -9.223481 -18.811747 -42.297264 0.290555 0.427019 50.84021 13.297245 7.122808 -19.071592 -1.427083 0.877618 0.769581 0.0 -0.0 -1e-06 
0.0 0.0 0.0 0.0 -0.0 0.0 15.125678 89.10878 6.022285 -1.382398 -10.157163 14.940298 0.040362 -0.013153 16.081785 -0.621557 1.251787 0.422304 -0.862654 -1.588858 8.303396 6.246619 1.036143 -3.008863 -1.473217 -0.118826 -3.546585 -4.424475 0.089406 1.143537 7.7e-05 -2.3e-05 6e-06 0.042935 -0.043011 -0.084972 0.842037 -3.82218 -10.748063 -0.770638 3.739199 -10.71843 40.117676 -24.456221 -14.116879 -0.845428 -41.814949 -80.977478 0.481228 -28.636246 0.465776 -1.012253 -6.936795 -65.099709 -5.88211 9.861293 0.702593 -10.93688 -0.360574 7.156213 -1e-06 8.774833 0.0 -16.104805 19.01722 6.696951 -1.844033 2.498506 -2.50728 -10.16361 4.67895 4.621115 -20.97604 -1e-06 3e-06 -21.226303 2.4517 -3.594002 0.0 -4e-06 0.0 -1.362683 2.2408 -0.746323 -21.33493 0.584912 3.00833 -13.821223 -1e-06 3e-06 -23.887188 -0.249075 -0.839482 -61.137741 2.890531 -1.623171 -0.294025 1.679689 0.833259 -14.218219 0.093216 1.300584 -34.212074 -0.287558 0.967174 -20.03323 0.964541 1.212845 0.0 1e-06 -0.0 -3.440391 0.788234 0.501656 -15.928201 -3.16731 2.999712 -6.338831 -2e-06 1e-06 -18.123461 3.648187 -4.905673 -3e-06 -0.0 -2e-06 -49.901108 32.414825 -25.819944 -9.925503 47.368073 -77.787598 -0.101174 28.262691 0.085732 -22.854162 -13.468681 -46.515045 2.243541 -5.25504 -3.180159 14.282896 -0.826593 6.952508 -3e-06 -12.690611 -0.0 15.907238 -17.617401 2.635653 1.665666 -1.955922 -2.8783 4.7278 -4.170589 4.993927 11.020529 4e-06 0.0 12.109056 -3.735717 -2.866784 -0.0 0.0 0.0 1.291986 -1.92855 -1.49809 14.800134 0.56747 3.865612 14.242575 -1.341736 -6.660659 19.631973 0.143927 -0.648242 49.905876 -0.561321 -6.180376 0.353029 -1.511151 -0.03194 20.222801 3.684314 2.316635 18.787283 4e-06 3e-06 10.751632 -0.47987 1.397909 0.0 -0.0 0.0 3.273808 0.305948 -0.580111 21.486826 11.830384 2.266139 8.16293 2e-06 1e-06 18.399088 -3.798986 -4.940573 3e-06 -0.0 -1e-06 6.948554 21.522068 -55.535133 -0.459277 -0.543978 41.142662 -11.627115 -9.380713 3.122031 1.642431 -1.861445 -0.09179 0.0 0.0 2e-06 -9.250016 -18.742985 -42.136215 0.289017 0.425152 50.764729 13.314523 7.132832 -19.061293 -1.424564 0.871638 0.698496 0.0 0.0 -1e-06 
